<?xml version="1.0" standalone="no"?>
<!DOCTYPE svg PUBLIC "-//W3C//DTD SVG 20010904//EN"
 "http://www.w3.org/TR/2001/REC-SVG-20010904/DTD/svg10.dtd">
<svg version="1.0" xmlns="http://www.w3.org/2000/svg"
 width="1920.000000pt" height="1920.000000pt" viewBox="0 0 1920.000000 1920.000000"
 preserveAspectRatio="xMidYMid meet">
<metadata>
Created by potrace 1.14, written by Peter Selinger 2001-2017
</metadata>
<g transform="translate(0.000000,1920.000000) scale(0.100000,-0.100000)"
fill="#000000" stroke="none">
<path d="M13999 10778 c-1 -7 -1 -17 0 -21 6 -34 7 -67 3 -72 -7 -7 -6 -101 2
-113 3 -6 2 -13 -3 -17 -6 -3 -7 -16 -3 -28 6 -20 7 -54 2 -82 -4 -26 -2 -104
4 -113 3 -6 2 -13 -3 -17 -7 -3 -7 -15 -1 -29 5 -13 6 -26 3 -29 -7 -8 -6
-1353 1 -1366 4 -5 2 -12 -3 -16 -6 -3 -7 -16 -3 -28 6 -20 7 -54 2 -82 -4
-26 -2 -104 4 -113 3 -6 2 -13 -3 -17 -6 -3 -7 -16 -3 -28 6 -20 7 -55 2 -82
-4 -23 -1 -95 5 -104 3 -6 271 255 595 579 325 325 592 590 595 590 3 0 5 -17
5 -37 0 -21 0 -58 0 -83 1 -25 0 -106 0 -180 -1 -74 0 -139 1 -145 1 -5 1 -14
0 -19 -2 -7 -2 -61 0 -106 0 -13 0 -180 0 -235 0 -11 0 -85 0 -165 0 -80 0
-160 -1 -177 0 -18 2 -33 5 -33 10 0 1185 1180 1185 1190 0 12 -1180 1193
-1186 1187 -4 -3 -5 -87 -4 -357 0 -25 0 -106 0 -180 -1 -74 0 -139 1 -145 1
-5 1 -14 0 -19 -1 -4 -2 -27 -1 -50 1 -83 1 -144 0 -274 -1 -72 2 -137 5 -142
32 -51 -98 73 -605 580 -324 325 -592 590 -595 590 -3 0 -6 -6 -6 -12z"/>
<path d="M1233 10692 l-203 -2 0 -1138 c0 -625 4 -1141 8 -1147 7 -10 132 -15
132 -5 0 5 55 3 103 -3 15 -3 30 0 33 5 3 4 9 6 14 3 14 -9 80 -12 85 -5 2 4
27 4 55 0 33 -4 50 -3 50 4 0 7 3 8 8 1 7 -10 132 -15 132 -5 0 5 40 4 108 -3
17 -2 32 0 32 5 0 4 10 4 23 0 20 -6 48 -7 72 -2 24 6 42 5 63 -2 12 -4 22 -4
22 0 0 4 26 7 58 8 118 2 237 22 317 55 17 7 35 13 42 15 29 6 141 69 193 109
69 53 135 127 180 200 13 22 27 42 30 45 27 23 121 284 135 375 23 154 24 168
24 315 1 156 -8 277 -26 354 -2 12 -6 35 -8 51 -2 17 -5 31 -6 33 -1 1 -2 5
-3 10 -1 4 -5 13 -9 20 -5 6 -6 12 -2 12 3 0 -1 15 -8 33 -8 17 -14 34 -15 37
-3 19 -28 83 -44 113 -5 10 -19 37 -31 60 -70 138 -223 289 -357 354 -35 17
-132 54 -152 58 -9 2 -38 7 -65 11 -26 3 -57 8 -68 11 -64 12 -535 20 -922 15z
m712 -396 c50 -3 99 -8 110 -10 160 -33 258 -101 325 -228 29 -53 66 -154 62
-169 -1 -4 3 -22 8 -40 10 -33 23 -222 23 -324 0 -60 -11 -230 -17 -265 -3
-14 -7 -38 -10 -55 -15 -96 -77 -235 -124 -282 -41 -40 -71 -63 -82 -63 -6 0
-10 -4 -10 -8 0 -6 -53 -26 -129 -48 -36 -11 -155 -16 -371 -18 l-236 -1 0
757 0 757 35 3 c51 4 310 0 416 -6z"/>
<path d="M7095 10690 l-60 -5 0 -1142 c0 -889 3 -1144 12 -1147 7 -3 15 -1 18
5 4 5 10 7 15 4 14 -9 80 -12 85 -5 2 4 27 4 55 0 27 -4 50 -2 50 2 0 5 5 6
11 2 14 -8 113 -9 127 0 6 3 13 2 17 -3 3 -6 15 -7 28 -2 12 4 27 6 34 4 9 -3
12 107 13 478 0 265 3 485 5 488 3 3 218 5 478 5 l472 1 0 188 c0 106 -4 191
-9 195 -14 8 -97 8 -103 -1 -2 -4 -8 -5 -13 -2 -15 9 -80 12 -80 3 0 -4 -10
-4 -22 1 -13 5 -33 5 -46 0 -13 -5 -21 -5 -18 -1 2 4 -14 6 -37 4 -50 -4 -48
-4 -115 0 -28 2 -52 -1 -52 -5 0 -5 -5 -5 -12 -1 -16 10 -150 11 -170 2 -10
-5 -18 -5 -18 0 0 9 -46 8 -71 -3 -10 -3 -19 -2 -22 3 -4 4 -23 7 -44 4 -21
-2 -45 -3 -53 -3 -8 1 -27 1 -42 2 l-28 0 0 270 c0 249 1 269 18 270 9 0 258
1 552 2 l535 2 1 193 1 192 -246 0 c-135 0 -462 2 -726 3 -264 1 -507 0 -540
-3z"/>
<path d="M12982 10628 c-7 -7 -12 -8 -12 -2 0 5 -4 4 -8 -2 -4 -6 -92 -61
-197 -121 l-190 -110 -3 -166 -2 -166 -102 -3 -102 -3 1 -165 c1 -91 2 -168 2
-172 1 -5 46 -8 101 -8 l100 0 1 -467 c1 -504 3 -553 23 -618 2 -5 7 -23 11
-40 12 -45 50 -100 87 -128 46 -35 103 -66 130 -70 13 -2 30 -7 39 -11 24 -10
209 -14 266 -5 114 18 219 50 216 66 -2 12 -16 164 -17 186 0 9 -3 17 -6 17
-3 0 -5 17 -6 37 0 21 -2 50 -2 65 l-2 26 -61 -18 c-110 -33 -161 -30 -204 13
l-33 33 -2 457 -1 457 151 0 150 0 0 175 0 175 -150 0 -150 0 0 290 c0 160 -4
290 -8 290 -4 0 -13 -5 -20 -12z"/>
<path d="M3875 10092 c-92 -7 -255 -70 -335 -129 -54 -40 -163 -155 -185 -196
-11 -21 -23 -37 -27 -37 -5 0 -8 -6 -8 -13 0 -7 -9 -32 -20 -56 -57 -116 -88
-288 -84 -458 3 -128 10 -192 35 -283 18 -70 89 -230 113 -257 6 -6 29 -34 51
-61 34 -42 146 -136 164 -137 3 -1 21 -9 40 -19 42 -22 107 -46 144 -53 15 -2
49 -10 75 -16 27 -7 102 -11 177 -10 142 2 168 4 235 23 25 7 50 13 55 15 11
2 52 19 88 35 88 42 186 127 248 216 41 60 100 187 91 195 -4 5 -27 11 -52 14
-54 7 -85 13 -85 15 0 1 -11 3 -25 5 -28 3 -69 10 -180 29 -43 8 -81 10 -90 5
-8 -5 -12 -9 -7 -9 4 0 1 -13 -8 -30 -9 -16 -13 -30 -9 -30 9 0 -45 -71 -75
-98 -46 -42 -91 -55 -181 -55 -71 -1 -94 3 -141 25 -67 31 -143 105 -159 153
-6 19 -15 35 -19 35 -7 0 -13 23 -27 105 -2 11 -6 32 -8 47 -4 20 0 30 12 36
9 4 258 7 552 7 l536 -1 -2 75 c-2 138 -15 239 -45 351 -11 41 -21 81 -21 88
-1 6 -5 12 -10 12 -4 0 -7 3 -6 8 0 4 -7 25 -16 46 -59 132 -178 258 -308 325
-45 24 -90 44 -98 46 -8 2 -33 8 -55 14 -84 22 -226 32 -330 23z m258 -361
c77 -37 158 -134 173 -206 12 -58 17 -85 18 -115 l1 -35 -325 0 -325 0 -1 30
c-2 142 90 289 209 333 72 27 186 24 250 -7z"/>
<path d="M9515 10093 c-208 -20 -350 -76 -443 -177 -34 -37 -94 -120 -98 -136
0 -3 -9 -23 -19 -45 -10 -22 -18 -43 -17 -47 1 -5 -2 -8 -6 -8 -4 0 -8 -12 -7
-27 0 -28 13 -35 92 -47 55 -9 97 -16 201 -36 l92 -17 35 66 c46 86 108 128
206 137 35 3 69 6 74 5 78 -5 125 -11 149 -21 66 -25 110 -74 118 -131 2 -13
7 -30 11 -36 5 -7 4 -13 -1 -13 -6 0 -7 -14 -2 -35 8 -34 6 -36 -28 -52 -39
-16 -209 -62 -252 -67 -14 -2 -43 -8 -65 -14 -22 -6 -56 -13 -75 -16 -19 -3
-45 -8 -57 -11 -13 -3 -32 -7 -42 -9 -63 -14 -178 -50 -188 -58 -7 -6 -13 -7
-13 -2 0 4 -5 3 -12 -4 -7 -7 -20 -12 -30 -12 -10 0 -18 -3 -18 -8 0 -4 -14
-13 -31 -21 -17 -7 -55 -37 -84 -66 -93 -91 -136 -206 -131 -348 4 -101 9
-125 47 -205 27 -57 127 -172 149 -172 5 0 15 -6 22 -13 17 -16 106 -55 138
-61 14 -3 36 -8 50 -12 14 -3 72 -7 130 -8 144 -2 256 27 375 98 57 34 56 34
110 80 l40 35 13 -37 c7 -20 14 -44 15 -52 8 -42 32 -90 44 -86 7 3 15 2 17
-3 3 -4 26 -5 51 -1 25 4 48 3 51 -1 2 -5 16 -4 29 1 13 5 27 6 29 1 3 -4 26
-5 51 -1 25 4 48 3 51 -1 2 -5 16 -4 29 1 13 5 26 6 29 2 7 -12 76 -1 76 12 0
6 -6 23 -14 37 -18 35 -53 144 -61 194 -11 65 -15 157 -14 385 1 354 -1 583
-5 615 -7 50 -17 109 -22 130 -9 34 -57 125 -66 125 -4 0 -8 7 -8 15 0 8 -4
15 -9 15 -5 0 -16 6 -23 13 -74 72 -204 125 -358 143 -45 5 -286 10 -325 7z
m386 -928 c1 -36 1 -95 0 -97 -1 -2 -3 -38 -5 -81 -7 -142 -75 -235 -211 -288
-16 -7 -34 -11 -39 -10 -4 1 -13 -2 -20 -7 -11 -8 -118 -8 -146 0 -74 22 -142
88 -160 155 -14 48 -8 135 9 141 6 2 11 8 11 13 0 18 36 51 82 75 27 13 51 25
55 25 5 1 13 3 18 5 11 4 87 22 125 30 14 3 41 9 60 14 19 5 46 11 60 14 14 3
48 11 75 19 75 22 85 21 86 -8z"/>
<path d="M11268 10095 c-2 -2 -32 -6 -68 -9 -164 -15 -305 -79 -400 -180 -57
-61 -76 -94 -104 -178 -22 -70 -27 -175 -12 -253 12 -58 66 -151 116 -202 70
-68 226 -144 379 -183 20 -5 81 -21 136 -35 120 -32 131 -35 174 -41 18 -2 41
-9 51 -14 10 -6 30 -10 44 -10 14 0 28 -4 31 -10 3 -5 14 -10 23 -10 25 0 67
-40 79 -75 7 -22 7 -42 -3 -73 -15 -54 -32 -72 -86 -100 -56 -27 -85 -33 -188
-38 -212 -10 -325 60 -384 239 -5 14 -13 17 -33 13 -16 -3 -48 -8 -73 -11 -25
-3 -58 -8 -75 -11 -16 -4 -41 -8 -55 -9 -70 -8 -188 -27 -207 -34 -7 -3 53
-144 79 -186 31 -50 148 -175 165 -175 5 0 18 -9 30 -19 21 -20 137 -73 188
-86 119 -31 211 -41 350 -39 141 3 175 6 230 18 17 3 39 8 50 10 41 8 141 50
194 81 70 41 169 144 201 210 14 28 27 52 31 55 9 8 29 111 24 120 -3 5 -2 11
3 14 5 3 7 17 6 33 -11 119 -16 149 -36 196 -13 30 -40 74 -60 98 -37 44 -164
129 -193 129 -8 0 -15 5 -15 10 0 6 -8 10 -18 10 -10 0 -22 3 -26 8 -4 4 -11
7 -14 7 -4 1 -36 11 -72 23 -59 19 -162 47 -215 57 -61 12 -80 17 -97 26 -10
5 -18 8 -18 5 0 -3 -15 0 -32 5 -18 6 -44 12 -57 15 -44 9 -146 47 -177 65
-84 51 -58 161 46 195 45 14 54 15 165 20 180 7 270 -33 325 -142 13 -27 24
-50 25 -51 0 -1 23 3 50 8 28 5 64 12 80 14 17 3 53 10 80 15 28 5 66 13 85
16 111 21 105 18 103 48 -6 81 -117 236 -213 299 -85 55 -141 74 -302 102 -34
6 -305 15 -310 10z"/>
<path d="M4961 9938 c28 -68 52 -130 54 -138 3 -12 114 -285 160 -395 4 -11 9
-24 11 -30 6 -22 125 -311 134 -327 6 -10 10 -22 10 -28 0 -6 10 -32 21 -58
42 -93 49 -110 49 -117 0 -3 11 -31 25 -61 14 -30 25 -58 25 -62 0 -5 8 -26
19 -48 10 -21 26 -59 34 -84 42 -122 75 -184 101 -191 14 -4 26 -3 26 2 0 5
10 5 23 1 20 -6 49 -7 70 -2 18 4 78 3 83 -3 3 -3 17 -2 30 3 13 5 25 6 28 2
2 -4 28 -6 58 -4 55 4 64 12 82 72 7 21 48 126 54 134 3 6 7 16 8 21 2 10 26
71 164 415 34 85 63 161 63 168 0 6 4 12 9 12 4 0 7 3 6 8 -1 4 5 23 14 43 9
20 19 47 23 60 4 13 13 38 21 54 7 17 40 98 73 181 32 83 66 167 74 185 8 19
32 79 53 134 20 55 41 105 44 110 4 6 10 22 14 38 l6 27 -223 0 -224 0 -33
-87 c-43 -119 -71 -192 -85 -228 -6 -16 -26 -70 -44 -120 -18 -49 -37 -98 -42
-107 -5 -10 -9 -22 -9 -27 0 -5 -8 -26 -17 -47 -9 -22 -17 -43 -19 -49 -1 -9
-46 -129 -77 -210 -7 -16 -12 -32 -13 -35 0 -3 -3 -12 -6 -20 -3 -8 -16 -49
-28 -90 -29 -100 -30 -103 -34 -99 -2 2 -32 87 -65 189 -34 102 -65 194 -70
205 -10 22 -22 54 -27 70 -1 6 -30 84 -64 175 -107 286 -121 325 -124 335 -1
6 -8 21 -16 35 -7 14 -12 25 -11 25 3 0 -7 31 -20 63 -9 22 -9 22 -238 22
l-230 0 50 -122z"/>
</g>
</svg>
